<svg xmlns="http://www.w3.org/2000/svg" width="720.02" height="170.14" viewBox="0 0 720.02 170.14"><path d="M0,65.65l7.64-2.91V13L0,11.54V7.3H49.46l1,18H46.73L35.85,12H22.16V35h20.5v5.81H22.16V64.15H38.67L50.38,49.38h3.81l-2.4,20.17H0Z"/><path d="M63.33,50h6.39c0,10.13,7.72,15.44,14.19,15.44,4.56,0,8.55-2.65,8.55-8.21,0-6.89-6-9.55-13.7-13.45-9.21-4.65-16.18-8.88-16.18-19.42C62.58,11.29,73.45,5.81,85,5.81a36.44,36.44,0,0,1,19.83,5.73l-4.15,12.11h-6c-.5-8.3-6.06-12-11-12-4.31,0-8.13,2.82-8.13,7.8,0,6.81,6.89,9.79,14.27,13.2,8.8,4.06,16.6,8.21,16.6,19.25,0,13.53-11.62,19.25-23.65,19.25-7.72,0-15.6-2.32-21.08-6.47Z"/><path d="M171.06,43.74l-4.4.74v19a39.1,39.1,0,0,1-22.91,7.63c-16.18,0-31.95-11-31.95-32.28,0-22.08,17-33,33.86-33a39.17,39.17,0,0,1,21.83,6.64l-6,15.19h-5.14a10.61,10.61,0,0,0,.08-1.41c0-9.71-6.64-14.78-14.11-14.78C130.8,11.45,125,23,125,35c0,13.61,7.46,27.81,21.82,27.81A16.62,16.62,0,0,0,153,61.75V45.65H142.67V39.5h28.39Z"/><path d="M204.09,22.57A7.24,7.24,0,0,1,211.56,30a7.39,7.39,0,1,1-14.77,0A7.2,7.2,0,0,1,204.09,22.57Zm0,32.45a7.47,7.47,0,1,1-7.3,7.47A7.24,7.24,0,0,1,204.09,55Z"/><path d="M240.61,50H247c0,10.13,7.71,15.44,14.19,15.44,4.56,0,8.55-2.65,8.55-8.21,0-6.89-6-9.55-13.7-13.45-9.21-4.65-16.18-8.88-16.18-19.42,0-13.11,10.87-18.59,22.41-18.59a36.44,36.44,0,0,1,19.83,5.73L278,23.65h-6c-.5-8.3-6.06-12-11-12-4.32,0-8.14,2.82-8.14,7.8,0,6.81,6.89,9.79,14.28,13.2,8.8,4.06,16.6,8.21,16.6,19.25,0,13.53-11.62,19.25-23.66,19.25-7.71,0-15.6-2.32-21.08-6.47Z"/><path d="M299,14.27a13.87,13.87,0,0,0-.16-2.57,7.28,7.28,0,0,1-4.73,1.74c-4.15,0-6.23-3.23-6.23-6.47A6.84,6.84,0,0,1,295,0c5.73,0,10.12,5,10.12,12.86,0,11.87-9.62,17.68-16.84,18.43l-1.66-4.65C295,25,299,19.59,299,14.27Z"/><path d="M324.44,69.71a17.68,17.68,0,0,1-5.72.83c-8.47,0-12.78-5.64-12.78-12.11,0-6.89,5-11.12,12.61-13.12l12-3.15v-5c0-4.4-3-6.39-6.05-6.39-3.66,0-7.56,3-7.56,8.55a8.37,8.37,0,0,0,.09,1.41h-5.48L307.76,31a35.55,35.55,0,0,1,18.92-5.56c8.72,0,16,3.73,16,13.52V58.26c0,2.82,1.33,4,3.07,4a3.41,3.41,0,0,0,2.91-1.49L350.17,65a9.34,9.34,0,0,1-8.63,5.56c-3.9,0-8.38-2.24-8.47-8.71Zm6.14-23.15-6.39,1.91c-4.81,1.41-7.3,4.56-7.3,7.72,0,2.73,1.91,5.39,6,5.39a10,10,0,0,0,7.71-3.65Z"/><path d="M354.41,65.65l6.39-2.41V31.37h-8.55v-4l8.55-2.58V21c0-11.87,9.29-17.18,19.92-17.18,5,0,10.37,1.16,14.6,4.65C399.22,5,404,3.82,408.93,3.82a33.07,33.07,0,0,1,15.61,4l-3.82,11.29h-5c-.17-7.3-3.82-10.62-7.3-10.62s-6.73,3.23-6.73,9.12v8.64h10.87v5.56H401.71V64.24l6.39,1.08v4.23H383.7v-3.9l5.56-2.41V31.79h-16V64.24l5.56,1.08v4.23h-24.4Zm34.85-39.42V19c0-7.06-3.4-10.54-8.21-10.54s-7.8,3.4-7.8,10v7.81Z"/><path d="M416.66,65.65l6.39-2.41V34.77l-6.23-2.9V29.13L434,25.4V36.27l10-10.46a21.82,21.82,0,0,1,9.38,2L450.1,40.17a12.64,12.64,0,0,0-14.6.33V64.24l6.39,1.08v4.23H416.66Z"/><path d="M473.92,69.71a17.68,17.68,0,0,1-5.72.83c-8.47,0-12.78-5.64-12.78-12.11,0-6.89,5-11.12,12.61-13.12l12-3.15v-5c0-4.4-3-6.39-6.06-6.39-3.65,0-7.56,3-7.56,8.55a8.37,8.37,0,0,0,.09,1.41h-5.48L457.24,31a35.62,35.62,0,0,1,18.93-5.56c8.71,0,16,3.73,16,13.52V58.26c0,2.82,1.33,4,3.07,4a3.41,3.41,0,0,0,2.91-1.49L499.65,65A9.34,9.34,0,0,1,491,70.54c-3.9,0-8.38-2.24-8.46-8.71Zm6.15-23.15-6.39,1.91c-4.82,1.41-7.31,4.56-7.31,7.72,0,2.73,1.91,5.39,6,5.39a10,10,0,0,0,7.72-3.65Z"/><path d="M501.73,65.65l6.39-2.41V34.77l-6.22-2.9V29.13l17.18-3.73v9.46l9.46-8.63a18.72,18.72,0,0,1,5.39-.83c6.64,0,13.45,4,13.45,14.6V64.24l6.39,1.08v4.23H529.62V65.23l5.31-2V42.82c0-5.64-2.58-8-5.81-8-2.74,0-5.89,1.66-8.55,4.4V64.24l5.31.91v4.4H501.73Z"/><path d="M577.59,30.79c-4.56,0-9.13,4.56-9.13,13.78,0,10.7,6.14,15.93,12.62,15.93,4.56,0,9.29-2.57,12.28-8.21l2.32,3.56c-3.07,10.3-10.95,14.69-18.5,14.69-10,0-20.09-7.8-20.09-22.32,0-14.69,10.29-22.82,22.66-22.82a33.14,33.14,0,0,1,15.1,3.9L591.2,42.16h-5.06C586.06,34.61,581.82,30.79,577.59,30.79Z"/><path d="M598.59,65.65,605,63.24V16l-6.22-2.91V10.37l18.67-4.06V33.53l8-7.3a18.72,18.72,0,0,1,5.39-.83c6.64,0,13.45,4,13.45,14.6V64.24l6.39,1.08v4.23H626.48V65.23l5.31-2V42.82c0-5.64-2.57-8-5.81-8-2.74,0-5.89,1.66-8.55,4.4V64.24l5.31.91v4.4H598.59Z"/><path d="M654,65.65l6.39-2.41V35.11l-6.22-2.91V29.46l18.67-4.06V64.24l6.39,1.08v4.23H654Zm3.57-53.78c0-4.9,3.4-8.14,8.3-8.14s8.3,3.24,8.3,8.14-3.4,8.13-8.3,8.13S657.52,16.76,657.52,11.87Z"/><path d="M683.33,65.65l6.39-2.41V34.77l-6.22-2.9V29.13l17.18-3.73V36.27l10-10.46a21.82,21.82,0,0,1,9.38,2l-3.24,12.37a12.78,12.78,0,0,0-7-2.16,12.93,12.93,0,0,0-7.64,2.49V64.24l6.39,1.08v4.23H683.33Z"/><path d="M21.41,125a23.39,23.39,0,0,1,7.14,1.32v-10.7l-6.22-2.91V110L41,105.91v54.44l5.89,1.08v3.82L30,170.14v-8.71l-10.79,8.22a11.8,11.8,0,0,1-3.48.49c-7.22,0-15.35-6.22-15.35-20.83C.42,132.05,11.79,125,21.41,125Zm7.14,7.71a8.31,8.31,0,0,0-6.47-2.82c-6.56,0-9.63,6.06-9.63,14.28,0,10.12,4.4,15.93,9.71,15.93a9.77,9.77,0,0,0,6.39-2.65Z"/><path d="M89.22,156.28c-2.82,9.38-10.37,13.86-18.09,13.86-10.13,0-20.5-7.71-20.5-22.32,0-15.19,10.79-22.82,20.83-22.82,8.8,0,17.43,5.89,17.43,18.5a26.41,26.41,0,0,1-.33,4.32H61.09c1,8.63,6.89,12.28,13,12.28,4.64,0,9.46-2.4,12.78-7.38ZM77.35,141.84c.92-8.05-2.65-11.45-6.72-11.45s-8.8,3.15-9.54,11.45Z"/><path d="M96.11,154.21h5.32a11,11,0,0,0,10.78,10.87c3.24,0,5.73-2.16,5.73-5.39,0-4.24-4.81-5.65-10-7.56-6.06-2.24-12.53-5-12.53-13.44,0-9.54,8.13-13.69,16.76-13.69a28.87,28.87,0,0,1,14.36,3.73l-2,8.88h-5c-.83-5.23-4.23-7.3-7.55-7.3-2.66,0-5.4,1.66-5.4,5.06,0,4.07,3.9,5.64,8.55,7.22,6.39,2.16,14.11,4.4,14.11,13.45,0,9.46-8.46,14.1-18.09,14.1a33.92,33.92,0,0,1-16.19-4Z"/><path d="M194.47,147.32c0,12.78-8.3,22.82-22.49,22.82s-21.92-10.2-21.92-22.49c0-12.69,8.22-22.65,22.5-22.65S194.47,135,194.47,147.32Zm-14.11,1.5c0-11.71-2.91-19.34-8.63-19.34-5.07,0-7.56,6-7.56,16.76,0,11.7,2.91,19.42,8.64,19.42C177.87,165.66,180.36,159.6,180.36,148.82Z"/><path d="M203.18,115.62,197,112.71V110l18.67-4.06v26.64l9.13-7.06a12.59,12.59,0,0,1,3.65-.49c10.46,0,15.94,10,15.94,20.74,0,15.52-11.21,24.4-24.65,24.4a34.81,34.81,0,0,1-16.52-4.39Zm18.09,49.46c5.73,0,10.79-4.9,10.79-14.61,0-7.63-3.07-15.6-9.54-15.6a9.72,9.72,0,0,0-6.89,3.07V163.5A11.2,11.2,0,0,0,221.27,165.08Z"/><path d="M250.82,154.21h5.32a11,11,0,0,0,10.79,10.87c3.23,0,5.72-2.16,5.72-5.39,0-4.24-4.81-5.65-10-7.56-6.06-2.24-12.53-5-12.53-13.44,0-9.54,8.13-13.69,16.77-13.69a28.86,28.86,0,0,1,14.35,3.73l-2,8.88h-5c-.83-5.23-4.23-7.3-7.55-7.3-2.66,0-5.4,1.66-5.4,5.06,0,4.07,3.91,5.64,8.55,7.22C276.3,144.75,284,147,284,156c0,9.46-8.46,14.1-18.09,14.1a33.88,33.88,0,0,1-16.18-4Z"/><path d="M306.6,155.21c0,5.8,3.49,7.38,7.39,7.38a18.37,18.37,0,0,0,4.73-.66v5.23a21.56,21.56,0,0,1-10.79,3c-7.22,0-13.78-3.9-13.78-13.61V131h-8.46v-4l8.46-2.57v-8.3l12.45-2.58v12.29h12.12v5.56H306.6Z"/><path d="M340.55,169.31a17.44,17.44,0,0,1-5.73.83c-8.47,0-12.78-5.64-12.78-12.11,0-6.89,5-11.12,12.61-13.12l12-3.15v-5c0-4.4-3-6.39-6.06-6.39-3.65,0-7.55,3-7.55,8.55a9.4,9.4,0,0,0,.08,1.41h-5.48l-3.82-9.79A35.62,35.62,0,0,1,342.79,125c8.71,0,16,3.73,16,13.52v19.34c0,2.82,1.32,4,3.07,4a3.4,3.4,0,0,0,2.9-1.49l1.49,4.23a9.34,9.34,0,0,1-8.63,5.56c-3.9,0-8.38-2.24-8.46-8.71Zm6.14-23.15-6.39,1.91c-4.82,1.41-7.31,4.56-7.31,7.72,0,2.74,1.91,5.39,6,5.39a10,10,0,0,0,7.72-3.65Z"/><path d="M390.1,130.39c-4.57,0-9.13,4.57-9.13,13.78,0,10.7,6.14,15.93,12.61,15.93,4.57,0,9.3-2.57,12.29-8.21l2.32,3.56c-3.07,10.3-11,14.69-18.51,14.69-10,0-20.08-7.8-20.08-22.32,0-14.69,10.29-22.82,22.65-22.82a33.18,33.18,0,0,1,15.11,3.9l-3.65,12.86h-5.06C398.56,134.21,394.33,130.39,390.1,130.39Z"/><path d="M411.1,165.25l6.39-2.41V115.62l-6.23-2.91V110l18.68-4.06v57.93l6.39,1.08v4.23H411.1Z"/><path d="M478.66,156.28c-2.83,9.38-10.38,13.86-18.1,13.86-10.12,0-20.5-7.71-20.5-22.32,0-15.19,10.79-22.82,20.84-22.82,8.79,0,17.42,5.89,17.42,18.5a26.41,26.41,0,0,1-.33,4.32H450.52c1,8.63,6.89,12.28,13,12.28,4.65,0,9.46-2.4,12.78-7.38Zm-11.87-14.44c.91-8.05-2.66-11.45-6.72-11.45s-8.8,3.15-9.55,11.45Z"/><path d="M485.55,154.21h5.31a11,11,0,0,0,10.79,10.87c3.24,0,5.73-2.16,5.73-5.39,0-4.24-4.82-5.65-10-7.56-6.06-2.24-12.54-5-12.54-13.44,0-9.54,8.14-13.69,16.77-13.69A28.9,28.9,0,0,1,516,128.73l-2,8.88h-5c-.83-5.23-4.24-7.3-7.56-7.3-2.65,0-5.39,1.66-5.39,5.06,0,4.07,3.9,5.64,8.55,7.22,6.39,2.16,14.11,4.4,14.11,13.45,0,9.46-8.47,14.1-18.1,14.1a33.88,33.88,0,0,1-16.18-4Z"/><path d="M531.45,154.62a7.47,7.47,0,1,1-7.31,7.47A7.25,7.25,0,0,1,531.45,154.62Z"/></svg>