<svg xmlns="http://www.w3.org/2000/svg" width="544.64" height="184.42" viewBox="0 0 544.64 184.42"><path d="M61.75,46.81l-4.4.75v19A39.1,39.1,0,0,1,34.44,74.2c-16.18,0-31.95-11-31.95-32.28,0-22.08,17-33,33.86-33a39.09,39.09,0,0,1,21.83,6.64l-6,15.18H47.06a10.54,10.54,0,0,0,.08-1.41c0-9.71-6.64-14.77-14.11-14.77-11.53,0-17.34,11.54-17.34,23.57,0,13.61,7.46,27.8,21.82,27.8a16.38,16.38,0,0,0,6.14-1.08V48.72H33.36V42.58H61.75Z" transform="translate(-2.49 -8.22)"/><path d="M105.74,59.76c-2.82,9.38-10.38,13.86-18.09,13.86-10.13,0-20.5-7.72-20.5-22.32,0-15.19,10.79-22.83,20.83-22.83,8.79,0,17.43,5.9,17.43,18.51a26.55,26.55,0,0,1-.34,4.32H77.6c1,8.63,6.89,12.28,13,12.28,4.65,0,9.46-2.41,12.78-7.39ZM93.87,45.32c.91-8-2.66-11.45-6.72-11.45S78.35,37,77.6,45.32ZM90.3,23.66H84.24L93.62,8.22l10.21,4.48Z" transform="translate(-2.49 -8.22)"/><path d="M109.89,68.72l6.39-2.4V37.85L110.06,35V32.21l17.18-3.74v9.46l9.46-8.63a18.72,18.72,0,0,1,5.39-.83c6.64,0,13.45,4,13.45,14.61V67.31l6.39,1.08v4.23H137.78V68.31l5.31-2V45.9c0-5.64-2.57-8-5.81-8-2.74,0-5.89,1.66-8.55,4.4V67.31l5.31.92v4.39H109.89Z" transform="translate(-2.49 -8.22)"/><path d="M203.84,59.76c-2.82,9.38-10.37,13.86-18.09,13.86-10.12,0-20.5-7.72-20.5-22.32,0-15.19,10.79-22.83,20.83-22.83,8.8,0,17.43,5.9,17.43,18.51a26.49,26.49,0,0,1-.33,4.32H175.71c1,8.63,6.89,12.28,13,12.28,4.65,0,9.46-2.41,12.78-7.39ZM192,45.32c.92-8-2.65-11.45-6.72-11.45s-8.79,3.15-9.54,11.45Zm-3.56-21.66h-6.06l9.38-15.44,10.2,4.48Z" transform="translate(-2.49 -8.22)"/><path d="M208.83,68.72l6.39-2.4V37.85L209,35V32.21l17.18-3.74V39.35l10-10.46a21.82,21.82,0,0,1,9.38,2l-3.24,12.37a12.65,12.65,0,0,0-7-2.16,12.88,12.88,0,0,0-7.63,2.49V67.31l6.39,1.08v4.23H208.83Z" transform="translate(-2.49 -8.22)"/><path d="M286.18,59.76c-2.82,9.38-10.38,13.86-18.09,13.86-10.13,0-20.5-7.72-20.5-22.32,0-15.19,10.79-22.83,20.83-22.83,8.79,0,17.43,5.9,17.43,18.51a26.55,26.55,0,0,1-.34,4.32H258c1,8.63,6.89,12.28,13,12.28,4.65,0,9.46-2.41,12.78-7.39ZM274.31,45.32c.91-8-2.66-11.45-6.72-11.45S258.79,37,258,45.32Z" transform="translate(-2.49 -8.22)"/><path d="M291.16,68.72l6.39-2.4V37.85L291.33,35V32.21l17.18-3.74V39.35l10-10.46c3,0,7,.66,9.37,2l-3.23,12.37a12.7,12.7,0,0,0-7-2.16A12.91,12.91,0,0,0,310,43.58V67.31l6.39,1.08v4.23H291.16Z" transform="translate(-2.49 -8.22)"/><path d="M366.69,28.47a23.44,23.44,0,0,1,7.14,1.33V19.09l-6.23-2.9V13.45l18.68-4.07V63.83l5.89,1.08v3.81l-16.85,4.9V64.91l-10.79,8.21a11.53,11.53,0,0,1-3.48.5c-7.22,0-15.36-6.22-15.36-20.83C345.69,35.53,357.06,28.47,366.69,28.47Zm7.14,7.72a8.32,8.32,0,0,0-6.48-2.82c-6.55,0-9.62,6.06-9.62,14.27,0,10.13,4.39,15.94,9.71,15.94a9.74,9.74,0,0,0,6.39-2.66Z" transform="translate(-2.49 -8.22)"/><path d="M434.5,59.76c-2.82,9.38-10.38,13.86-18.09,13.86-10.13,0-20.5-7.72-20.5-22.32,0-15.19,10.79-22.83,20.83-22.83,8.8,0,17.43,5.9,17.43,18.51a26.55,26.55,0,0,1-.34,4.32H406.36c1,8.63,6.89,12.28,13,12.28,4.65,0,9.46-2.41,12.78-7.39ZM422.63,45.32c.91-8-2.66-11.45-6.72-11.45s-8.8,3.15-9.55,11.45Z" transform="translate(-2.49 -8.22)"/><path d="M441.39,57.69h5.31a11,11,0,0,0,10.79,10.87c3.24,0,5.73-2.16,5.73-5.4,0-4.23-4.82-5.64-10-7.55-6.06-2.24-12.53-5-12.53-13.44,0-9.55,8.13-13.7,16.76-13.7a28.91,28.91,0,0,1,14.36,3.74l-2,8.88h-5c-.83-5.23-4.24-7.31-7.56-7.31-2.65,0-5.39,1.66-5.39,5.07,0,4.06,3.9,5.64,8.55,7.22,6.39,2.16,14.11,4.4,14.11,13.44,0,9.46-8.47,14.11-18.1,14.11a33.88,33.88,0,0,1-16.18-4Z" transform="translate(-2.49 -8.22)"/><path d="M46.89,150.4c0,12.78-8.3,22.82-22.49,22.82S2.49,163,2.49,150.73c0-12.7,8.22-22.66,22.49-22.66S46.89,138,46.89,150.4Zm-14.11,1.49c0-11.7-2.9-19.34-8.63-19.34-5.06,0-7.55,6-7.55,16.77,0,11.7,2.9,19.42,8.63,19.42C30.29,168.74,32.78,162.68,32.78,151.89Z" transform="translate(-2.49 -8.22)"/><path d="M51.87,188.74l6.39-2.41v-49L52,134.38v-2.74l17.18-3.57v8.72l10.62-8.22a12.63,12.63,0,0,1,3.65-.5c10.46,0,15.94,9.46,15.94,20.25,0,16.52-11.12,24.24-21.66,24.24a20.39,20.39,0,0,1-7.06-1.25v16l8.22,1.41v3.9H51.87Zm35.28-35.69c0-7.63-3.08-15.1-9.55-15.1a10.14,10.14,0,0,0-6.89,2.9v23.66a10.67,10.67,0,0,0,6.81,2.82C82.58,167.33,87.15,162.68,87.15,153.05Z" transform="translate(-2.49 -8.22)"/><path d="M105.24,188.74l6.39-2.41v-49l-6.22-2.91v-2.74l17.18-3.57v8.72l10.62-8.22a12.58,12.58,0,0,1,3.65-.5c10.46,0,15.94,9.46,15.94,20.25,0,16.52-11.12,24.24-21.66,24.24a20.39,20.39,0,0,1-7.06-1.25v16l8.22,1.41v3.9H105.24Zm35.27-35.69c0-7.63-3.07-15.1-9.54-15.1a10.14,10.14,0,0,0-6.89,2.9v23.66a10.67,10.67,0,0,0,6.81,2.82C136,167.33,140.51,162.68,140.51,153.05Z" transform="translate(-2.49 -8.22)"/><path d="M203,150.4c0,12.78-8.3,22.82-22.49,22.82S158.61,163,158.61,150.73c0-12.7,8.22-22.66,22.49-22.66S203,138,203,150.4Zm-14.11,1.49c0-11.7-2.9-19.34-8.63-19.34-5.06,0-7.55,6-7.55,16.77,0,11.7,2.9,19.42,8.63,19.42C186.41,168.74,188.9,162.68,188.9,151.89Z" transform="translate(-2.49 -8.22)"/><path d="M207.58,168.32l6.39-2.4V137.45l-6.22-2.9v-2.74l17.17-3.74V139l10-10.46a21.82,21.82,0,0,1,9.38,2L241,142.85a12.73,12.73,0,0,0-7-2.16,12.9,12.9,0,0,0-7.63,2.49v23.73l6.39,1.08v4.24H207.58Z" transform="translate(-2.49 -8.22)"/><path d="M264.76,158.28c0,5.81,3.49,7.39,7.39,7.39a17.83,17.83,0,0,0,4.73-.67v5.23a21.54,21.54,0,0,1-10.79,3c-7.22,0-13.78-3.9-13.78-13.61V134.05h-8.46v-4l8.46-2.58v-8.3l12.45-2.57V128.9h12.12v5.56H264.76Z" transform="translate(-2.49 -8.22)"/><path d="M322.53,163.43l5.89,1.08v3.81l-16.85,4.9v-9.46l-9.46,8.63a8.71,8.71,0,0,1-3.9.83c-5.56,0-13.28-3.9-13.28-15.1V135L278.54,133V128.9h18.84v26.39c0,5.4,2.74,7.81,5.89,7.81a8.93,8.93,0,0,0,6.81-3.82V135L303.77,133V128.9h18.76Z" transform="translate(-2.49 -8.22)"/><path d="M330.5,168.32l6.39-2.4V137.45l-6.22-2.9v-2.74l17.17-3.74v9.46l9.47-8.63a19,19,0,0,1,5.39-.83c6.64,0,13.44,4,13.44,14.61v24.23l6.4,1.08v4.24H358.38v-4.32l5.32-2V145.5c0-5.64-2.58-8.05-5.81-8.05-2.74,0-5.9,1.66-8.55,4.4v25.06l5.31.92v4.4H330.5Z" transform="translate(-2.49 -8.22)"/><path d="M385.45,168.32l6.38-2.4V137.78l-6.22-2.9v-2.74l18.67-4.07v38.84l6.39,1.08v4.24H385.45ZM389,114.55c0-4.9,3.41-8.14,8.3-8.14s8.3,3.24,8.3,8.14-3.4,8.13-8.3,8.13S389,119.44,389,114.55Z" transform="translate(-2.49 -8.22)"/><path d="M432.83,158.28c0,5.81,3.49,7.39,7.39,7.39A17.83,17.83,0,0,0,445,165v5.23a21.51,21.51,0,0,1-10.79,3c-7.22,0-13.77-3.9-13.77-13.61V134.05h-8.47v-4l8.47-2.58v-8.3l12.44-2.57V128.9H445v5.56H432.83Z" transform="translate(-2.49 -8.22)"/><path d="M486.87,159.36c-2.83,9.38-10.38,13.86-18.1,13.86-10.12,0-20.5-7.72-20.5-22.32,0-15.19,10.79-22.83,20.84-22.83,8.79,0,17.42,5.9,17.42,18.51a26.49,26.49,0,0,1-.33,4.32H458.73c1,8.63,6.89,12.28,13,12.28,4.65,0,9.46-2.41,12.78-7.39ZM475,144.92c.91-8-2.66-11.45-6.72-11.45s-8.8,3.15-9.55,11.45Zm-3.57-21.66h-6.06l9.38-15.44L485,112.3Z" transform="translate(-2.49 -8.22)"/><path d="M493.76,157.29h5.31a11,11,0,0,0,10.79,10.87c3.24,0,5.72-2.16,5.72-5.4,0-4.23-4.81-5.64-10-7.55-6.06-2.24-12.54-5-12.54-13.44,0-9.55,8.14-13.7,16.77-13.7a28.91,28.91,0,0,1,14.36,3.74l-2,8.88h-5c-.83-5.23-4.24-7.31-7.56-7.31-2.65,0-5.39,1.66-5.39,5.07,0,4.06,3.9,5.64,8.55,7.22,6.39,2.16,14.11,4.4,14.11,13.44,0,9.46-8.47,14.11-18.1,14.11a33.88,33.88,0,0,1-16.18-4Z" transform="translate(-2.49 -8.22)"/><path d="M539.66,157.7a7.47,7.47,0,1,1-7.31,7.47A7.25,7.25,0,0,1,539.66,157.7Z" transform="translate(-2.49 -8.22)"/></svg>